<?xml version="1.0" encoding="UTF-8" standalone="no"?>
<!DOCTYPE svg PUBLIC "-//W3C//DTD SVG 1.1//EN"
 "http://www.w3.org/Graphics/SVG/1.1/DTD/svg11.dtd">
<!-- Generated by graphviz version 2.46.1 (20210213.1702)
 -->
<!-- Title: test Pages: 1 -->
<svg width="291pt" height="28pt"
 viewBox="0.00 0.00 291.00 28.00" xmlns="http://www.w3.org/2000/svg" xmlns:xlink="http://www.w3.org/1999/xlink">
<g id="graph0" class="graph" transform="scale(1 1) rotate(0) translate(4 24)">
<title>test</title>
<polygon fill="white" stroke="transparent" points="-4,4 -4,-24 287,-24 287,4 -4,4"/>
<!-- Node1 -->
<g id="node1" class="node">
<title>Node1</title>
<g id="a_node1"><a xlink:title="Self&#45;test implementations.">
<polygon fill="#bfbfbf" stroke="black" points="0,-0.5 0,-19.5 33,-19.5 33,-0.5 0,-0.5"/>
<text text-anchor="middle" x="16.5" y="-7.5" font-family="Helvetica,sans-Serif" font-size="10.00">test</text>
</a>
</g>
</g>
<!-- Node2 -->
<g id="node2" class="node">
<title>Node2</title>
<g id="a_node2"><a xlink:href="../../da/d6c/exponential__search_8c.html#affd2a0ccb243bc6e07b5b793bf3abdbd" target="_top" xlink:title=" ">
<polygon fill="white" stroke="black" points="69,-0.5 69,-19.5 170,-19.5 170,-0.5 69,-0.5"/>
<text text-anchor="middle" x="119.5" y="-7.5" font-family="Helvetica,sans-Serif" font-size="10.00">exponential_search</text>
</a>
</g>
</g>
<!-- Node1&#45;&gt;Node2 -->
<g id="edge1" class="edge">
<title>Node1&#45;&gt;Node2</title>
<path fill="none" stroke="midnightblue" d="M33.28,-10C40.37,-10 49.23,-10 58.53,-10"/>
<polygon fill="midnightblue" stroke="midnightblue" points="58.74,-13.5 68.74,-10 58.74,-6.5 58.74,-13.5"/>
</g>
<!-- Node3 -->
<g id="node3" class="node">
<title>Node3</title>
<g id="a_node3"><a xlink:href="../../da/d6c/exponential__search_8c.html#afdc582ea4bc37250337705d1121f7557" target="_top" xlink:title=" ">
<polygon fill="white" stroke="black" points="206,-0.5 206,-19.5 283,-19.5 283,-0.5 206,-0.5"/>
<text text-anchor="middle" x="244.5" y="-7.5" font-family="Helvetica,sans-Serif" font-size="10.00">binary_search</text>
</a>
</g>
</g>
<!-- Node2&#45;&gt;Node3 -->
<g id="edge2" class="edge">
<title>Node2&#45;&gt;Node3</title>
<path fill="none" stroke="midnightblue" d="M170.17,-10C178.61,-10 187.36,-10 195.74,-10"/>
<polygon fill="midnightblue" stroke="midnightblue" points="195.75,-13.5 205.75,-10 195.75,-6.5 195.75,-13.5"/>
</g>
</g>
</svg>
